<svg width="139" height="18" viewBox="0 0 139 18" fill="none" xmlns="http://www.w3.org/2000/svg">
<path d="M6 17C10.875 17 13.7656 13.9844 13.7656 8.98437C13.7656 4 10.875 1 6.10937 1H0.578125V17H6ZM3.47656 14.4922V3.50781H5.94531C9.19531 3.50781 10.8906 5.32031 10.8906 8.98437C10.8906 12.6641 9.19531 14.4922 5.85938 14.4922H3.47656ZM23.603 11.9531C23.603 13.7812 22.2983 14.6875 21.0483 14.6875C19.6889 14.6875 18.7827 13.7266 18.7827 12.2031V5H15.9545V12.6406C15.9545 15.5234 17.5952 17.1563 19.9545 17.1563C21.7514 17.1563 23.017 16.2109 23.5639 14.8672H23.6889V17H26.4311V5H23.603V11.9531ZM38.3837 8.17188C37.993 6.14062 36.368 4.84375 33.5555 4.84375C30.6649 4.84375 28.6962 6.26562 28.704 8.48437C28.6962 10.2344 29.7743 11.3906 32.079 11.8672L34.1259 12.2969C35.2274 12.5391 35.743 12.9844 35.743 13.6641C35.743 14.4844 34.8524 15.1016 33.5087 15.1016C32.2118 15.1016 31.368 14.5391 31.1259 13.4609L28.368 13.7266C28.7196 15.9297 30.5712 17.2344 33.5165 17.2344C36.5165 17.2344 38.6337 15.6797 38.6415 13.4062C38.6337 11.6953 37.5321 10.6484 35.2665 10.1562L33.2196 9.71875C32.0009 9.44531 31.5165 9.02344 31.5243 8.32812C31.5165 7.51562 32.4149 6.95312 33.5946 6.95312C34.8993 6.95312 35.5868 7.66406 35.8055 8.45312L38.3837 8.17188ZM46.5257 5H44.1585V2.125H41.3304V5H39.6273V7.1875H41.3304V13.8594C41.3148 16.1172 42.9554 17.2266 45.0804 17.1641C45.8851 17.1406 46.4398 16.9844 46.7445 16.8828L46.2679 14.6719C46.1116 14.7109 45.7913 14.7812 45.4398 14.7812C44.7288 14.7812 44.1585 14.5312 44.1585 13.3906V7.1875H46.5257V5ZM51.5369 1H48.7088V17H51.5369V1ZM54.0051 17H56.8332V5H54.0051V17ZM55.427 3.29688C56.3254 3.29688 57.0598 2.60938 57.0598 1.76562C57.0598 0.914062 56.3254 0.226562 55.427 0.226562C54.5207 0.226562 53.7863 0.914062 53.7863 1.76562C53.7863 2.60938 54.5207 3.29688 55.427 3.29688ZM59.3014 17H62.1295V12.9687L63.1608 11.8672L66.8327 17H70.2155L65.2936 10.1797L69.942 5H66.6373L62.3248 9.82031H62.1295V1H59.3014V17ZM75.3458 17.2109C77.4083 17.2109 78.338 15.9844 78.7833 15.1094H78.9552V17H81.7364V1H78.9005V6.98437H78.7833C78.3536 6.11719 77.4708 4.84375 75.3536 4.84375C72.5802 4.84375 70.4005 7.01562 70.4005 11.0156C70.4005 14.9687 72.5177 17.2109 75.3458 17.2109ZM76.1348 14.8906C74.2677 14.8906 73.2833 13.25 73.2833 11C73.2833 8.76562 74.252 7.16406 76.1348 7.16406C77.9552 7.16406 78.9552 8.67187 78.9552 11C78.9552 13.3281 77.9395 14.8906 76.1348 14.8906ZM89.5445 17.2344C93.0601 17.2344 95.2945 14.7578 95.2945 11.0469C95.2945 7.32812 93.0601 4.84375 89.5445 4.84375C86.0288 4.84375 83.7945 7.32812 83.7945 11.0469C83.7945 14.7578 86.0288 17.2344 89.5445 17.2344ZM89.5601 14.9687C87.6148 14.9687 86.6616 13.2344 86.6616 11.0391C86.6616 8.84375 87.6148 7.08594 89.5601 7.08594C91.4741 7.08594 92.4273 8.84375 92.4273 11.0391C92.4273 13.2344 91.4741 14.9687 89.5601 14.9687ZM100.083 9.96875C100.083 8.23438 101.13 7.23437 102.622 7.23437C104.083 7.23437 104.958 8.19531 104.958 9.79687V17H107.786V9.35937C107.794 6.48437 106.153 4.84375 103.677 4.84375C101.88 4.84375 100.645 5.70313 100.099 7.03906H99.958V5H97.2548V17H100.083V9.96875ZM111.963 17.1719C112.885 17.1719 113.674 16.4062 113.682 15.4531C113.674 14.5156 112.885 13.75 111.963 13.75C111.01 13.75 110.237 14.5156 110.245 15.4531C110.237 16.4062 111.01 17.1719 111.963 17.1719ZM123.81 11.9531C123.81 13.7812 122.506 14.6875 121.256 14.6875C119.896 14.6875 118.99 13.7266 118.99 12.2031V5H116.162V12.6406C116.162 15.5234 117.803 17.1563 120.162 17.1563C121.959 17.1563 123.224 16.2109 123.771 14.8672H123.896V17H126.639V5H123.81V11.9531ZM128.95 17H138.802V14.6562H132.708V14.5547L138.599 6.92969V5H129.154V7.34375H135.138V7.44531L128.95 15.2031V17Z" fill="#008F48"/>
</svg>
